<?xml version="1.0" encoding="UTF-8"?>
<svg viewBox="0 0 800 600" xmlns="http://www.w3.org/2000/svg">
  <!-- Sky Background -->
  <defs>
    <linearGradient id="skyGradient" x1="0%" y1="0%" x2="0%" y2="100%">
      <stop offset="0%" stop-color="#1a237e" />
      <stop offset="100%" stop-color="#4a148c" />
    </linearGradient>
    
    <!-- Glow effect -->
    <filter id="glow" x="-20%" y="-20%" width="140%" height="140%">
      <feGaussianBlur stdDeviation="8" result="blur" />
      <feComposite in="SourceGraphic" in2="blur" operator="over" />
    </filter>
  </defs>
  
  <!-- Background -->
  <rect width="800" height="600" fill="url(#skyGradient)" />
  
  <!-- Stars -->
  <g>
    <circle cx="100" cy="80" r="1.5" fill="white" opacity="0.8" />
    <circle cx="200" cy="50" r="1" fill="white" opacity="0.6" />
    <circle cx="300" cy="90" r="1.2" fill="white" opacity="0.7" />
    <circle cx="650" cy="70" r="1" fill="white" opacity="0.8" />
    <circle cx="720" cy="120" r="1.5" fill="white" opacity="0.6" />
    <circle cx="150" cy="150" r="1" fill="white" opacity="0.7" />
    <circle cx="500" cy="80" r="1.2" fill="white" opacity="0.8" />
    <circle cx="420" cy="40" r="1" fill="white" opacity="0.7" />
    <circle cx="750" cy="60" r="1.3" fill="white" opacity="0.6" />
  </g>
  
  <!-- Futuristic Kite Body -->
  <g transform="translate(400, 250) rotate(30)">
    <!-- Main kite body - delta wing inspired design -->
    <path d="M0,-150 L120,90 L0,50 L-120,90 Z" fill="#0288d1" stroke="#01579b" stroke-width="2" />
    
    <!-- Tech pattern overlay -->
    <path d="M0,-150 L60,20 L0,0 L-60,20 Z" fill="#29b6f6" opacity="0.7" />
    <path d="M0,0 L60,20 L0,50 L-60,20 Z" fill="#0277bd" opacity="0.8" />
    
    <!-- Holographic accent shapes -->
    <path d="M0,-130 L40,-70 L0,-50 L-40,-70 Z" fill="#b388ff" opacity="0.6" filter="url(#glow)" />
    <path d="M0,-40 L30,0 L0,20 L-30,0 Z" fill="#ea80fc" opacity="0.7" filter="url(#glow)" />
    
    <!-- LED-like light accents -->
    <circle cx="0" cy="-100" r="5" fill="#00e5ff" filter="url(#glow)" />
    <circle cx="0" cy="-50" r="3" fill="#00e5ff" filter="url(#glow)" />
    <circle cx="0" cy="0" r="4" fill="#00e5ff" filter="url(#glow)" />
    <circle cx="0" cy="30" r="2" fill="#00e5ff" filter="url(#glow)" />
    
    <!-- Edge lights -->
    <circle cx="-80" cy="40" r="2.5" fill="#00e5ff" filter="url(#glow)" />
    <circle cx="80" cy="40" r="2.5" fill="#00e5ff" filter="url(#glow)" />
    
    <!-- Stabilizing fins -->
    <path d="M-120,90 L-140,130 L-100,110 Z" fill="#0277bd" stroke="#01579b" stroke-width="1.5" />
    <path d="M120,90 L140,130 L100,110 Z" fill="#0277bd" stroke="#01579b" stroke-width="1.5" />
    
    <!-- Carbon fiber-like central spine -->
    <line x1="0" y1="-150" x2="0" y2="50" stroke="#263238" stroke-width="3" />
    
    <!-- Energy core -->
    <circle cx="0" cy="0" r="8" fill="#ff3d00" opacity="0.8" filter="url(#glow)" />
  </g>
  
  <!-- Kite string with tech glow -->
  <path d="M400,250 L450,400 L480,500" fill="none" stroke="#e0e0e0" stroke-width="1.5" stroke-dasharray="5,3" opacity="0.8" />
  
  <!-- Kite Controller -->
  <g transform="translate(480, 500)">
    <rect x="-20" y="-10" width="40" height="20" rx="5" fill="#37474f" stroke="#263238" stroke-width="1" />
    <circle cx="-10" cy="0" r="3" fill="#00e5ff" filter="url(#glow)" />
    <rect x="5" y="-5" width="10" height="10" fill="#4fc3f7" opacity="0.8" />
  </g>
  
  <!-- Energy trails -->
  <path d="M400,250 C420,270 430,260 445,280 C460,300 470,290 480,310" fill="none" stroke="#00e5ff" stroke-width="2" opacity="0.5" filter="url(#glow)" stroke-dasharray="2,4" />
  <path d="M400,250 C380,270 370,260 355,280 C340,300 330,290 320,310" fill="none" stroke="#00e5ff" stroke-width="2" opacity="0.5" filter="url(#glow)" stroke-dasharray="2,4" />
  
  <!-- Cloud elements -->
  <path d="M100,500 C120,480 150,490 160,480 C180,460 200,480 220,470 C240,460 260,480 270,500 Z" fill="white" opacity="0.4" />
  <path d="M600,530 C620,510 650,520 660,510 C680,490 700,510 720,500 C740,490 760,510 770,530 Z" fill="white" opacity="0.3" />
</svg>
